<?xml version="1.0" encoding="UTF-8"?>
<!DOCTYPE svg PUBLIC "-//W3C//DTD SVG 1.1//EN" "http://www.w3.org/Graphics/SVG/1.1/DTD/svg11.dtd">
<!-- Creator: CorelDRAW -->
<svg xmlns="http://www.w3.org/2000/svg" xml:space="preserve" width="9.05407mm" height="6mm" version="1.1" style="shape-rendering:geometricPrecision; text-rendering:geometricPrecision; image-rendering:optimizeQuality; fill-rule:evenodd; clip-rule:evenodd"
viewBox="0 0 2376.59 1574.93"
 xmlns:xlink="http://www.w3.org/1999/xlink"
 xmlns:xodm="http://www.corel.com/coreldraw/odm/2003">
 <defs>
  <style type="text/css">
   <![CDATA[
    .fil2 {fill:none}
    .fil1 {fill:#00A859}
    .fil0 {fill:black}
   ]]>
  </style>
 </defs>
 <g id="Capa_x0020_1">
  <metadata id="CorelCorpID_0Corel-Layer"/>
  <g id="_1429539989328">
   <path class="fil0" d="M693.17 1319.73l0 -1064.53c0,-70.03 41.38,-111.4 111.4,-111.4l767.45 0c70.03,0 111.4,41.38 111.4,111.4l0 1064.53c0,70.03 -41.38,111.4 -111.4,111.4l-767.45 0c-70.03,0 -111.4,-41.38 -111.4,-111.4zm-99.02 -1089.28l0 1114.02c0,94.79 93.73,185.67 185.67,185.67l816.95 0c93.45,0 185.67,-92.22 185.67,-185.67l0 -1114.02c0,-93.45 -92.22,-185.67 -185.67,-185.67l-816.95 0c-93.45,0 -185.67,92.22 -185.67,185.67z"/>
   <g>
    <path class="fil1" d="M1113.03 683.33l80.85 -72.38c-18.56,-17.53 -50.3,-42 -65.76,-55.13 -38.77,-32.9 -57.9,-58.95 -103.79,-58.95 -22.54,0 -50.54,23.75 -50.54,42.87 0,36.28 22.86,44.72 65.35,82.38 11.81,10.48 33.83,26.91 52.85,42.63 7.84,6.47 15.15,12.82 21.04,18.58z"/>
    <path class="fil1" d="M1260.57 382.71l-66.12 104.28 -11.81 18.63c-14.17,23.96 -37.33,54.08 -47.56,72.31 -25.78,45.92 -45.86,53.09 -32.46,90.92 7.53,21.28 38.52,34.96 76.76,25.2 25.34,-6.46 53.01,-58.45 64.37,-76.36 6.4,-10.11 17.27,-25.87 27.55,-41.58 0.04,-0.08 0.09,-0.15 0.14,-0.23l14.18 -22.6c4.67,-7.91 8.36,-14.91 10.21,-20.02 0.67,0.18 1.35,0.36 2,0.54l59.05 -94.14c7.6,-17.9 21.44,-37.31 35.88,-57.21 29.44,-40.54 61.43,-83.21 48.5,-119.72 -9.8,-27.65 -69.01,-43.67 -98.72,-10.62l-57.5 86.87c-7.48,11.67 -14.02,28.18 -24.47,43.73zm-66.12 104.28l101.38 46.26 -101.38 -46.26z"/>
   </g>
   <path class="fil0" d="M841.71 1004.08c0,34.24 20.88,55.7 43.32,55.7l606.54 0c22.44,0 43.32,-21.46 43.32,-55.7 0,-19.32 -24,-43.32 -43.32,-43.32l-606.54 0c-19.32,0 -43.32,24 -43.32,43.32z"/>
   <path class="fil0" d="M841.71 1202.14c0,34.24 20.88,55.7 43.32,55.7l606.54 0c22.44,0 43.32,-21.46 43.32,-55.7 0,-19.32 -24,-43.32 -43.32,-43.32l-606.54 0c-19.32,0 -43.32,24 -43.32,43.32z"/>
   <rect class="fil2" width="2376.59" height="1574.93"/>
  </g>
 </g>
</svg>
