<?xml version="1.0" encoding="UTF-8"?>
<!DOCTYPE svg PUBLIC "-//W3C//DTD SVG 1.1//EN" "http://www.w3.org/Graphics/SVG/1.1/DTD/svg11.dtd">
<!-- Creator: CorelDRAW -->
<svg xmlns="http://www.w3.org/2000/svg" xml:space="preserve" width="9.05407mm" height="6mm" version="1.1" style="shape-rendering:geometricPrecision; text-rendering:geometricPrecision; image-rendering:optimizeQuality; fill-rule:evenodd; clip-rule:evenodd"
viewBox="0 0 221.15 146.56"
 xmlns:xlink="http://www.w3.org/1999/xlink"
 xmlns:xodm="http://www.corel.com/coreldraw/odm/2003">
 <defs>
  <style type="text/css">
   <![CDATA[
    .fil1 {fill:none}
    .fil0 {fill:black}
    .fil2 {fill:#F91227}
   ]]>
  </style>
 </defs>
 <g id="Capa_x0020_1">
  <metadata id="CorelCorpID_0Corel-Layer"/>
  <g id="_1429532546592">
   <path class="fil0" d="M64.5 122.81l0 -99.06c0,-6.52 3.85,-10.37 10.37,-10.37l71.42 0c6.52,0 10.37,3.85 10.37,10.37l0 99.06c0,6.52 -3.85,10.37 -10.37,10.37l-71.42 0c-6.52,0 -10.37,-3.85 -10.37,-10.37zm-9.21 -101.36l0 103.67c0,8.82 8.72,17.28 17.28,17.28l76.02 0c8.7,0 17.28,-8.58 17.28,-17.28l0 -103.67c0,-8.7 -8.58,-17.28 -17.28,-17.28l-76.02 0c-8.7,0 -17.28,8.58 -17.28,17.28z"/>
   <path class="fil0" d="M78.33 93.44c0,3.19 1.94,5.18 4.03,5.18l56.44 0c2.09,0 4.03,-2 4.03,-5.18 0,-1.8 -2.23,-4.03 -4.03,-4.03l-56.44 0c-1.8,0 -4.03,2.23 -4.03,4.03z"/>
   <path class="fil0" d="M78.33 111.86c0,3.19 1.94,5.18 4.03,5.18l56.44 0c2.09,0 4.03,-2 4.03,-5.18 0,-1.8 -2.23,-4.03 -4.03,-4.03l-56.44 0c-1.8,0 -4.03,2.23 -4.03,4.03z"/>
   <rect class="fil1" width="221.15" height="146.56"/>
   <path class="fil2" d="M92.72 30.92c0,3.41 1.82,4.21 5.21,7.75 1.56,1.63 5.35,4.79 6.59,6.65 -1.33,1.98 -5.21,5.12 -6.87,6.96 -3.21,3.54 -4.94,3.73 -4.94,7.44 0,2.09 2,4.03 5.18,4.03 2.11,0 5.63,-4.05 6.98,-5.4 1.57,-1.57 5.23,-4.86 6.26,-6.41 1.7,1.14 2.96,2.92 4.15,4.2l5.48 5.46c4.13,4.17 8.8,1.93 8.8,-3.04 0,-3.17 -9.58,-10.35 -11.52,-13.25 3.02,-4.51 11.52,-8.89 11.52,-14.4 0,-2.71 -4.09,-5.52 -7.25,-3.22l-6.74 6.5c-1.19,1.18 -2.5,3.2 -4.43,4.5 -1.02,-1.52 -4.58,-4.72 -6.12,-6.26 -3.09,-3.09 -4.62,-5.54 -8.28,-5.54 -1.8,0 -4.03,2.23 -4.03,4.03z"/>
  </g>
 </g>
</svg>
